<?xml version="1.0" encoding="UTF-8" standalone="no"?>
<!DOCTYPE svg PUBLIC "-//W3C//DTD SVG 1.1//EN" "http://www.w3.org/Graphics/SVG/1.1/DTD/svg11.dtd">
<svg width="100%" height="100%" viewBox="0 0 267 267" version="1.1" xmlns="http://www.w3.org/2000/svg" xmlns:xlink="http://www.w3.org/1999/xlink" xml:space="preserve" xmlns:serif="http://www.serif.com/" style="fill-rule:evenodd;clip-rule:evenodd;stroke-linejoin:round;stroke-miterlimit:1.5;">
    <g transform="matrix(2.08333,0,0,2.08333,0,0)">
        <g transform="matrix(1,0,0,1,-3.7,5)">
            <g transform="matrix(0.915444,-0.915444,1.30705,1.30705,-53.1901,46.1411)">
                <path d="M106,42L32,42L32,61L106,61L106,42ZM38.179,46.328L38.179,56.672L99.821,56.672L99.821,46.328L38.179,46.328Z" style="fill:rgb(92,92,92);"/>
            </g>
            <g transform="matrix(1.03125,0,0,1.03125,-22.5813,16.25)">
                <path d="M56.515,55.03C45.848,63.758 41,75.394 40.03,88.97C56.515,88.97 61.364,86.061 73.97,74.424" style="fill:none;stroke:rgb(92,92,92);stroke-width:7.76px;"/>
            </g>
        </g>
    </g>
</svg>
