<?xml version="1.0" encoding="UTF-8" standalone="no"?>
<!DOCTYPE svg PUBLIC "-//W3C//DTD SVG 1.1//EN" "http://www.w3.org/Graphics/SVG/1.1/DTD/svg11.dtd">
<svg width="100%" height="100%" viewBox="0 0 512 512" version="1.1" xmlns="http://www.w3.org/2000/svg" xmlns:xlink="http://www.w3.org/1999/xlink" xml:space="preserve" xmlns:serif="http://www.serif.com/" style="fill-rule:evenodd;clip-rule:evenodd;stroke-linejoin:round;stroke-miterlimit:2;">
    <g transform="matrix(1.43369,0,0,1.63265,-179.018,-174.449)">
        <g transform="matrix(0.875001,0,0,0.875002,8.11006,93.2877)">
            <ellipse cx="282.5" cy="246.5" rx="139.5" ry="122.5" style="fill:rgb(92,92,92);"/>
        </g>
        <g transform="matrix(1.1625,0,0,1.3233,-63.6925,48.1333)">
            <ellipse cx="359" cy="130" rx="105" ry="81" style="fill:white;fill-opacity:0;"/>
            <path d="M359,49C416.951,49 464,85.295 464,130C464,174.705 416.951,211 359,211C301.049,211 254,174.705 254,130C254,85.295 301.049,49 359,49ZM359,72.143C400.394,72.143 434,98.068 434,130C434,161.932 400.394,187.857 359,187.857C317.606,187.857 284,161.932 284,130C284,98.068 317.606,72.143 359,72.143Z" style="fill:rgb(92,92,92);"/>
        </g>
    </g>
</svg>
