<?xml version="1.0" encoding="UTF-8" standalone="no"?>
<!DOCTYPE svg PUBLIC "-//W3C//DTD SVG 1.1//EN" "http://www.w3.org/Graphics/SVG/1.1/DTD/svg11.dtd">
<svg width="100%" height="100%" viewBox="0 0 128 128" version="1.1" xmlns="http://www.w3.org/2000/svg" xmlns:xlink="http://www.w3.org/1999/xlink" xml:space="preserve" xmlns:serif="http://www.serif.com/" style="fill-rule:evenodd;clip-rule:evenodd;stroke-linejoin:round;stroke-miterlimit:2;">
    <g transform="matrix(0.888889,0,0,0.914286,5.33333,3.11429)">
        <rect x="12" y="13" width="108" height="105" style="fill:none;"/>
        <clipPath id="_clip1">
            <rect x="12" y="13" width="108" height="105"/>
        </clipPath>
        <g clip-path="url(#_clip1)">
            <g transform="matrix(1.125,0,0,1.09375,-6,-1.21875)">
                <g transform="matrix(0.707107,-0.707107,0.707107,0.707107,-59.5147,66.066)">
                    <rect x="-14" y="2" width="166" height="15" style="fill:rgb(92,92,92);"/>
                </g>
                <g transform="matrix(0.707107,-0.707107,0.707107,0.707107,-36.5147,83.066)">
                    <rect x="-14" y="2" width="166" height="15" style="fill:rgb(92,92,92);"/>
                </g>
                <g transform="matrix(0.707107,-0.707107,0.707107,0.707107,-6.51472,95.066)">
                    <rect x="-14" y="2" width="166" height="15" style="fill:rgb(92,92,92);"/>
                </g>
                <g transform="matrix(1.06444,-1.06444,0.707107,0.707107,-5.51208,136.38)">
                    <rect x="-14" y="2" width="166" height="15" style="fill:rgb(92,92,92);"/>
                </g>
                <g transform="matrix(0.707107,-0.707107,0.707107,0.707107,-59.5147,66.066)">
                    <rect x="-14" y="2" width="166" height="15" style="fill:rgb(92,92,92);"/>
                </g>
                <g transform="matrix(0.707107,-0.707107,0.707107,0.707107,44.4853,129.383)">
                    <rect x="-14" y="2" width="166" height="15" style="fill:rgb(92,92,92);"/>
                </g>
                <g transform="matrix(0.707107,-0.707107,0.707107,0.707107,61.4853,155.066)">
                    <rect x="-14" y="2" width="166" height="15" style="fill:rgb(92,92,92);"/>
                </g>
            </g>
        </g>
    </g>
</svg>
